<svg width="800" height="167" viewBox="0 0 800 167" fill="none" xmlns="http://www.w3.org/2000/svg">
<path d="M80.0244 58.0273C76.7044 60.5322 72.6787 62.3286 71.1838 62.9775C40.6505 76.1223 30.8149 69.4712 27.8871 63.488C26.3491 60.3318 26.6266 57.3045 26.6266 57.3045C26.6266 57.3045 1.48242 94.1481 1.48242 94.3127C1.73358 95.9517 6.73992 104.473 9.67245 106.227C9.67245 106.236 9.68202 106.236 9.68202 106.236C11.995 107.648 14.6979 108.665 17.6448 109.28C27.0523 111.239 39.0312 109.089 49.4553 102.171C58.3844 96.2475 80.0244 58.0297 80.0244 58.0297V58.0273Z" fill="url(#paint0_linear_1400_20)"/>
<path d="M87.4492 108.958C90.7692 106.453 94.7949 104.657 96.2899 104.008C126.823 90.863 136.659 97.5141 139.586 103.497C141.125 106.653 140.847 109.681 140.847 109.681C140.847 109.681 165.991 72.8372 165.991 72.6726C165.74 71.0337 160.734 62.5122 157.801 60.7588C157.801 60.7492 157.792 60.7492 157.792 60.7492C155.479 59.3369 152.776 58.3207 149.829 57.7052C140.421 55.7466 128.442 57.896 118.018 64.8143C109.089 70.7378 87.4492 108.956 87.4492 108.956V108.958Z" fill="url(#paint1_linear_1400_20)"/>
<path d="M2.77397 98.7881C2.80985 98.8572 3.36717 100.179 4.95303 102.2C6.77809 104.523 9.54796 106.167 9.67952 106.238C9.22983 105.835 5.5271 102.264 7.278 94.6657C8.50986 89.3314 11.4998 82.2867 19.0296 72.9422C36.7707 52.5713 57.8414 34.0875 88.896 20.4655C95.9523 17.369 108.319 12.2518 113.263 12.1135C113.28 12.1039 113.306 12.1039 113.325 12.1039C114.459 12.0228 115.564 12.4665 116.219 13.4208V13.4303C118.269 16.2644 117.241 22.9752 114.495 27.057C110.986 31.7424 105.829 37.3224 98.2103 43.5966C92.0151 48.6135 36.5387 91.9437 20.063 107.128C19.4817 107.663 18.8431 108.335 18.1925 109.068C17.9485 109.342 17.7141 109.621 17.4844 109.905C11.9638 116.78 11.9471 126.585 17.0467 133.778C19.0488 136.603 21.0006 138.795 21.0054 138.8C32.8814 152.4 48.2808 160.352 61.2499 163.961C74.9605 167.776 88.0493 167.506 97.7534 165.834C97.7893 165.824 97.8156 165.824 97.8491 165.817H97.8586C120.608 161.912 138.806 149.459 150.953 133.299C160.573 120.497 167.065 103.896 167.462 85.648C167.637 77.6299 166.713 72.3028 164.709 68.2139C164.673 68.1447 164.116 66.823 162.53 64.8024C160.705 62.4788 157.935 60.8351 157.803 60.7635C158.253 61.1667 161.956 64.738 160.205 72.3362C158.973 77.6705 155.983 84.7152 148.453 94.0598C130.712 114.431 109.641 132.914 78.5867 146.536C71.5305 149.633 59.1641 154.75 54.22 154.888C54.2032 154.898 54.1769 154.898 54.1578 154.898C53.024 154.979 51.9189 154.535 51.2635 153.581V153.572C49.2136 150.737 50.2421 144.024 52.9881 139.945C56.4971 135.26 61.6541 129.68 69.2725 123.405L69.2581 123.401C75.4796 118.362 130.949 75.0535 147.42 59.8737C148.025 59.3155 148.692 58.6093 149.372 57.8412C149.611 57.5716 149.843 57.2948 150.068 57.0133C155.538 50.1642 155.533 40.4237 150.47 33.2692C148.456 30.4231 146.482 28.2045 146.477 28.1997C134.601 14.5993 119.202 6.64798 106.233 3.03852C92.5222 -0.776094 79.4335 -0.506518 69.7293 1.16819C69.6935 1.17774 69.6672 1.17774 69.6337 1.18489H69.6241C46.8743 5.09017 28.6764 17.5431 16.5301 33.7034C6.90964 46.5047 0.417899 63.1062 0.0208363 81.3539C-0.153776 89.372 0.769518 94.6991 2.77397 98.7881Z" fill="url(#paint2_radial_1400_20)"/>
<path d="M550.548 37.0124H519.984C519.319 37.0124 518.788 37.2772 518.522 38.0716L502.044 79.0257C501.91 79.5553 501.513 79.8201 501.114 79.8201C500.714 79.8201 500.449 79.5553 500.183 79.0257L483.705 38.0716C483.44 37.2772 482.909 37.0124 482.244 37.0124H451.68C450.883 37.0124 450.35 37.542 450.35 38.3388V128.463C450.35 129.257 450.881 129.789 451.68 129.789H476.927C477.723 129.789 478.256 129.26 478.256 128.463V85.1234C478.256 84.4602 478.522 83.9305 478.921 83.9305C479.321 83.9305 479.586 84.1954 479.852 84.8586L497.526 128.728C497.791 129.522 498.323 129.787 498.987 129.787H503.24C503.905 129.787 504.436 129.522 504.702 128.728L522.376 84.8586C522.641 84.1954 522.907 83.9305 523.306 83.9305C523.706 83.9305 523.971 84.4602 523.971 85.1234V128.463C523.971 129.257 524.502 129.789 525.301 129.789H550.548C551.345 129.789 551.878 129.26 551.878 128.463V38.3388C551.878 37.5444 551.347 37.0124 550.548 37.0124Z" fill="#1E22AA"/>
<path d="M355.741 106.46H335.809C335.012 106.46 334.479 105.931 334.479 105.134V38.3362C334.479 37.5418 333.948 37.0098 333.149 37.0098H307.103C306.307 37.0098 305.773 37.5394 305.773 38.3362V104.471C305.773 105.928 304.977 106.458 302.982 106.458C291.953 106.458 281.454 99.9641 268.698 84.0592C268.433 83.7944 268.299 83.396 268.299 83.1312C268.299 82.8664 268.433 82.4679 268.698 82.2031L298.598 38.5986C298.731 38.3338 298.863 38.069 298.863 37.9354C298.863 37.4058 298.464 37.0074 297.667 37.0074H267.768C267.103 37.0074 266.438 37.2722 266.172 37.9354L254.744 59.0077C254.478 59.5373 254.213 59.8021 253.813 59.8021C253.548 59.8021 253.148 59.5373 252.883 59.0077L241.322 37.9354C241.057 37.2722 240.392 37.0074 239.727 37.0074H209.828C209.031 37.0074 208.632 37.4058 208.632 37.9354C208.632 38.069 208.766 38.3338 208.897 38.5986L246.372 92.9385C246.506 93.2033 246.637 93.4681 246.637 93.6017C246.637 94.1313 246.238 94.3961 245.707 94.3961C245.573 94.3961 245.441 94.3961 245.176 94.2625C243.449 93.7329 241.722 93.4681 239.861 93.4681C233.747 93.4681 226.971 96.6481 222.586 103.144L205.178 128.193C205.044 128.458 204.912 128.723 204.912 128.856C204.912 129.386 205.312 129.784 206.108 129.784H236.007C236.672 129.784 237.203 129.386 237.603 128.856L252.885 104.206C253.151 103.807 253.416 103.543 253.682 103.543C254.081 103.543 254.346 103.807 254.612 104.206C262.85 114.543 276.671 127.268 289.695 127.268C296.605 127.268 301.255 123.689 303.647 119.316C304.046 118.522 304.577 118.257 304.977 118.257C305.508 118.257 305.773 118.522 305.773 119.185V129.787H373.678C374.343 129.787 375.008 129.388 375.008 128.329V128.064C373.281 116.136 365.971 106.463 355.741 106.463V106.46Z" fill="#1E22AA"/>
<path d="M423.938 75.18L409.586 70.4087C406.398 69.3495 404.802 66.9639 404.802 64.843C404.802 62.4574 406.663 60.3366 410.382 60.3366H437.093C437.89 60.3366 438.423 59.807 438.423 59.0102V38.3339C438.423 37.5395 437.892 37.0075 437.093 37.0075H408.655C389.52 37.0075 376.764 48.4061 376.764 64.5735C376.764 79.0208 384.339 87.1033 396.564 91.2138L410.516 95.8514C413.839 96.9106 415.3 99.2963 415.3 101.417C415.3 104.068 413.174 106.453 409.32 106.453H382.079C381.282 106.453 380.749 106.983 380.749 107.78V128.456C380.749 129.25 381.28 129.782 382.079 129.782H411.844C435.098 129.782 443.736 117.324 443.736 102.347C443.736 87.3705 437.225 79.684 423.935 75.1776L423.938 75.18Z" fill="#1E22AA"/>
<path d="M798.667 37.0124H730.896C730.1 37.0124 729.566 37.542 729.566 38.3388V59.015C729.566 59.8095 730.097 60.3415 730.896 60.3415H750.032V128.463C750.032 129.257 750.563 129.789 751.362 129.789H777.408C778.204 129.789 778.738 129.26 778.738 128.463V60.3415H798.67C799.466 60.3415 800 59.8118 800 59.015V38.3388C800 37.5444 799.469 37.0124 798.67 37.0124H798.667Z" fill="#1E22AA"/>
<path d="M710.874 92.4186C720.059 87.1607 725.651 78.0667 725.651 67.0976C725.651 49.2054 711.434 37.0124 691.102 37.0124H648.578C647.781 37.0124 647.248 37.542 647.248 38.3388V128.463C647.248 129.257 647.779 129.789 648.578 129.789H674.624C675.42 129.789 675.954 129.26 675.954 128.463V97.3187H682.883L697.747 128.861C698.012 129.525 698.677 129.789 699.342 129.789H726.85C727.515 129.789 727.912 129.391 727.912 128.861C727.912 128.728 727.912 128.463 727.778 128.198L710.874 92.421V92.4186ZM675.951 57.6863H688.442C693.492 57.6863 696.948 61.3983 696.948 67.0952C696.948 71.7328 693.494 75.3113 688.442 75.3113H675.951V57.6839V57.6863Z" fill="#1E22AA"/>
<path d="M619.829 37.0124H579.3C578.504 37.0124 577.97 37.542 577.839 38.2052L558.703 128.329V128.594C558.703 129.257 559.103 129.787 559.899 129.787H587.273C588.069 129.787 588.602 129.389 588.734 128.594L590.595 115.872C590.729 114.944 591.126 114.679 591.925 114.679H607.339C608.135 114.679 608.535 114.944 608.669 115.872L610.529 128.594C610.663 129.389 611.194 129.787 611.991 129.787H639.364C640.161 129.787 640.426 129.257 640.426 128.728V128.329L621.291 38.2052C621.157 37.542 620.626 37.0124 619.829 37.0124ZM604.016 94.0027H595.245C594.448 94.0027 593.915 93.3395 594.049 92.545L598.833 58.6167C598.967 57.4238 600.294 57.4238 600.428 58.6167L605.212 92.545C605.346 93.3395 604.813 94.0027 604.016 94.0027Z" fill="#1E22AA"/>
<defs>
<linearGradient id="paint0_linear_1400_20" x1="80.6535" y1="102.751" x2="2.48068" y2="57.4999" gradientUnits="userSpaceOnUse">
<stop offset="0.13" stop-color="#791548"/>
<stop offset="0.24" stop-color="#6E1447"/>
<stop offset="0.42" stop-color="#531144"/>
<stop offset="0.66" stop-color="#280D41"/>
<stop offset="0.8" stop-color="#0B0B3F"/>
</linearGradient>
<linearGradient id="paint1_linear_1400_20" x1="185.316" y1="107.379" x2="32.9332" y2="51.7682" gradientUnits="userSpaceOnUse">
<stop offset="0.09" stop-color="#140A10"/>
<stop offset="0.11" stop-color="#200B16"/>
<stop offset="0.17" stop-color="#3B0E26"/>
<stop offset="0.23" stop-color="#521032"/>
<stop offset="0.3" stop-color="#63123C"/>
<stop offset="0.38" stop-color="#701443"/>
<stop offset="0.5" stop-color="#771446"/>
<stop offset="0.8" stop-color="#791548"/>
</linearGradient>
<radialGradient id="paint2_radial_1400_20" cx="0" cy="0" r="1" gradientUnits="userSpaceOnUse" gradientTransform="translate(158.803 39.3637) rotate(139.985) scale(214.865 268.459)">
<stop stop-color="#FC9AC4"/>
<stop offset="0.09" stop-color="#F467A1"/>
<stop offset="0.19" stop-color="#EC307B"/>
<stop offset="0.27" stop-color="#E60D63"/>
<stop offset="0.31" stop-color="#E5005A"/>
<stop offset="0.47" stop-color="#880F7F"/>
<stop offset="0.65" stop-color="#1E22AA"/>
<stop offset="0.68" stop-color="#2226AD"/>
<stop offset="0.71" stop-color="#2E32B7"/>
<stop offset="0.75" stop-color="#4347C8"/>
<stop offset="0.78" stop-color="#6064E0"/>
<stop offset="0.81" stop-color="#8083FA"/>
</radialGradient>
</defs>
</svg>
